<?xml version="1.0" encoding="UTF-8"?>
<!-- Sonic Terminal — Monochrome variant (for menu bar, README badges, dark UI) -->
<svg xmlns="http://www.w3.org/2000/svg" viewBox="0 0 1024 1024" width="1024" height="1024">
  <defs>
    <clipPath id="squircle">
      <path d="M 512 16 C 880 16 1008 144 1008 512 C 1008 880 880 1008 512 1008
               C 144 1008 16 880 16 512 C 16 144 144 16 512 16 Z"/>
    </clipPath>
  </defs>
  <g clip-path="url(#squircle)">
    <rect width="1024" height="1024" fill="currentColor"/>
    <g fill="none" stroke="white" stroke-width="40" stroke-linejoin="round" stroke-linecap="round">
      <path d="M 290 470 L 410 555 L 290 640"/>
    </g>
    <rect x="440" y="618" width="100" height="22" rx="6" fill="white"/>
    <path d="M 220 250 L 700 250 L 700 760 L 220 760 Z"
          fill="none" stroke="white" stroke-width="16" stroke-linejoin="round"/>
    <line x1="220" y1="338" x2="700" y2="338" stroke="white" stroke-width="10" stroke-linecap="round"/>
    <circle cx="278" cy="294" r="14" fill="white"/>
    <circle cx="338" cy="294" r="14" fill="white"/>
    <circle cx="398" cy="294" r="14" fill="white"/>
  </g>
</svg>
